<svg xmlns="http://www.w3.org/2000/svg" id="artwork" viewBox="0 0 135 40">
  <style>
    .st1{fill:#fff;stroke:#fff;stroke-width:.2;stroke-miterlimit:10}.st8{opacity:.12;enable-background:new}
  </style>
  <path fill="#a6a6a6" d="M130.2 40H4.7A4.7 4.7 0 0 1 0 35.3V4.7C0 2.1 2.1 0 4.7 0h125.5c2.6 0 4.8 2.1 4.8 4.7v30.5c0 2.7-2.2 4.8-4.8 4.8z"/>
  <path d="M134 35.3c0 2.1-1.7 3.8-3.8 3.8H4.7a3.8 3.8 0 0 1-3.8-3.8V4.7C.9 2.6 2.6.9 4.7.9h125.5c2.1 0 3.8 1.7 3.8 3.8v30.6z"/>
  <path d="M47.4 10.2c0 .7-.2 1.5-.8 2a3.1 3.1 0 0 1-5.3-2.3c0-.8.3-1.6.9-2.2.6-.6 1.4-.9 2.2-.9l1.2.2c.4.1.7.4.9.7l-.5.5a2 2 0 0 0-1.6-.7c-1.3 0-2.3 1-2.3 2.3v.1c0 1.3 1 2.4 2.3 2.4.6 0 1.2-.2 1.7-.7.3-.3.5-.8.5-1.2h-2.2v-.6h2.9l.1.4zM52 7.7h-2.7v1.9h2.5v.7h-2.5v1.9H52v.8h-3.5V7H52v.7zM55.3 13h-.8V7.7h-1.7V7H57v.7h-1.7V13zM59.9 13V7h.8v6h-.8zM64.1 13h-.8V7.7h-1.7V7h4.1v.7H64V13h.1zM73.6 12.2a3.1 3.1 0 0 1-4.4 0C68 11 68 9 69.2 7.8s3.2-1.2 4.4 0a3.1 3.1 0 0 1 0 4.4zm-3.8-.5c.9.9 2.4.9 3.3 0 .9-1 .9-2.5 0-3.4s-2.4-.9-3.3 0c-.9 1-.9 2.4 0 3.4zM75.6 13V7h.9l2.9 4.7V7h.8v6h-.8l-3.1-4.9V13h-.7z" class="st1"/>
  <path fill="#fff" d="M68.1 21.8a4.2 4.2 0 1 0 .2 0c-.1-.1-.1-.1-.2 0zm0 6.8c-1.4.1-2.7-1-2.8-2.4-.1-1.4 1-2.7 2.4-2.8 1.4-.1 2.7 1 2.8 2.4v.2c.1 1.4-.9 2.5-2.4 2.6.1 0 .1 0 0 0zm-9.3-6.8a4.2 4.2 0 1 0 .2 0c-.1-.1-.1-.1-.2 0zm0 6.8c-1.4.1-2.7-1-2.8-2.4s1-2.7 2.4-2.8c1.4-.1 2.7 1 2.8 2.4v.2c.1 1.4-1 2.5-2.4 2.6.1 0 0 0 0 0zm-11.1-5.5v1.8H52c-.1.8-.4 1.6-1 2.3-.9.9-2.1 1.4-3.3 1.3-2.7 0-4.8-2.1-4.8-4.8s2.1-4.8 4.8-4.8c1.2 0 2.4.4 3.3 1.3l1.3-1.3a6.7 6.7 0 0 0-11.4 4.4 6.7 6.7 0 0 0 6.3 6.9h.5c1.7.1 3.4-.6 4.6-1.8 1-1.2 1.6-2.7 1.6-4.2l-.1-1.1h-6.1zm45.4 1.4a4 4 0 0 0-3.6-2.7 4 4 0 0 0-4 4v.3c0 2.3 1.8 4.2 4.1 4.2h.2a4 4 0 0 0 3.5-1.9l-1.4-1c-.4.7-1.2 1.2-2.1 1.2s-1.7-.5-2.1-1.3l5.7-2.3-.3-.5zm-5.9 1.4c-.1-1.3.9-2.4 2.2-2.5.7 0 1.3.3 1.6.9l-3.8 1.6zM82.6 30h1.9V17.5h-1.9V30zm-3-7.3c-.6-.6-1.5-1-2.3-1a4.2 4.2 0 0 0-4 4.5 4.2 4.2 0 0 0 4 4c.9 0 1.7-.4 2.2-1h.1v.6c0 1.6-.9 2.5-2.3 2.5-1 0-1.8-.6-2.1-1.5l-1.6.7a4 4 0 0 0 3.8 2.5c2.2 0 4-1.3 4-4.4V22h-1.7l-.1.7zm-2.2 5.9a2.7 2.7 0 0 1-2.4-2.8c.1-1.3 1.1-2.2 2.4-2.4 1.3.1 2.3 1.2 2.3 2.5v.1c.1 1.3-.9 2.5-2.2 2.6h-.1zm24.4-11.1h-4.5V30h1.9v-4.7h2.6c2.1.2 4-1.5 4.2-3.6s-1.5-4-3.6-4.2h-.6zm0 6h-2.6v-4.3h2.7c1.2 0 2.1 1 2.1 2.1s-1 2.2-2.2 2.2zm11.5-1.8c-1.4-.1-2.7.7-3.3 1.9l1.7.7c.3-.6 1-1 1.7-.9 1-.1 1.9.6 2 1.6v.1c-.6-.3-1.3-.5-1.9-.5-1.8 0-3.6 1-3.6 2.8a3 3 0 0 0 3 2.8h.1c1 .1 1.9-.4 2.4-1.2h.1v1h1.8v-4.8c-.1-2.2-1.8-3.5-4-3.5zm-.2 6.8c-.6 0-1.5-.3-1.5-1.1 0-1 1.1-1.3 2-1.3.6 0 1.2.1 1.7.4-.1 1.2-1 2.1-2.2 2zm10.6-6.5l-2.1 5.4h-.1l-2.2-5.4h-2l3.3 7.6-1.9 4.2h1.9l5.1-11.8h-2zm-16.8 8h1.9V17.5h-1.9V30z"/>
  <linearGradient id="SVGID_1_" x1="21.8" x2="5" y1="-1812.7" y2="-1829.5" gradientTransform="matrix(1 0 0 -1 0 -1804)" gradientUnits="userSpaceOnUse">
    <stop offset="0" stop-color="#00a0ff"/>
    <stop offset="0" stop-color="#00a1ff"/>
    <stop offset=".3" stop-color="#00beff"/>
    <stop offset=".5" stop-color="#00d2ff"/>
    <stop offset=".8" stop-color="#00dfff"/>
    <stop offset="1" stop-color="#00e3ff"/>
  </linearGradient>
  <path fill="url(#SVGID_1_)" d="M10.4 7.5c-.3.4-.5.9-.4 1.4V31c0 .5.1 1 .5 1.4l.1.1L23 20.1v-.3L10.4 7.5z"/>
  <linearGradient id="SVGID_2_" x1="33.8" x2="9.6" y1="-1824" y2="-1824" gradientTransform="matrix(1 0 0 -1 0 -1804)" gradientUnits="userSpaceOnUse">
    <stop offset="0" stop-color="#ffe000"/>
    <stop offset=".4" stop-color="#ffbd00"/>
    <stop offset=".8" stop-color="orange"/>
    <stop offset="1" stop-color="#ff9c00"/>
  </linearGradient>
  <path fill="url(#SVGID_2_)" d="M27 24.3l-4.1-4.1v-.3l4.1-4.1h.1l4.9 2.8c1.4.8 1.4 2.1 0 2.9l-4.9 2.8H27z"/>
  <linearGradient id="SVGID_3_" x1="24.8" x2="2.1" y1="-1826.3" y2="-1849" gradientTransform="matrix(1 0 0 -1 0 -1804)" gradientUnits="userSpaceOnUse">
    <stop offset="0" stop-color="#ff3a44"/>
    <stop offset="1" stop-color="#c31162"/>
  </linearGradient>
  <path fill="url(#SVGID_3_)" d="M27.1 24.2L22.9 20 10.4 32.5c.6.5 1.5.5 2.1.1l14.6-8.4"/>
  <linearGradient id="SVGID_4_" x1="7.3" x2="17.4" y1="-1804.2" y2="-1814.3" gradientTransform="matrix(1 0 0 -1 0 -1804)" gradientUnits="userSpaceOnUse">
    <stop offset="0" stop-color="#32a071"/>
    <stop offset=".1" stop-color="#2da771"/>
    <stop offset=".5" stop-color="#15cf74"/>
    <stop offset=".8" stop-color="#06e775"/>
    <stop offset="1" stop-color="#00f076"/>
  </linearGradient>
  <path fill="url(#SVGID_4_)" d="M27.1 15.8L12.5 7.5c-.6-.5-1.5-.5-2.1 0L22.9 20l4.2-4.2z"/>
  <path d="M27 24.1l-14.5 8.2c-.6.4-1.4.4-2 0l-.1.1.1.1c.6.4 1.4.4 2 0l14.6-8.3-.1-.1z" opacity=".2"/>
  <path d="M10.4 32.3c-.3-.4-.5-.9-.5-1.4v.2c0 .5.1 1 .5 1.4v-.2zM32 21.3l-5 2.8.1.1 4.9-2.8c.6-.3.9-.8 1-1.4-.1.6-.5 1-1 1.3z" class="st8"/>
  <path fill="#fff" d="M12.5 7.6L32 18.7c.5.3.9.7 1 1.3-.1-.6-.4-1.2-1-1.4l-19.5-11c-1.4-.9-2.5-.2-2.5 1.3V9c0-1.5 1.1-2.2 2.5-1.4z" opacity=".3"/>
</svg>
